# xmcd
#
# Track frame offsets:
#	150
#	18402
#	33845
#	62970
#	81922
#	96785
#	112122
#	129690
#	144587
#	157985
# Disc length: 2308 seconds
# Revision: 1
# Processed by: cddbd v1.5.1PL0 Copyright (c) Steve Scherf et al.
#
# Submitted via: libkcddb 0.20
#
DISCID=8409020a
DTITLE=Dick Brave - Dick This
DYEAR=1900
DGENRE=Unknown
TTITLE0=Get the party started
TTITLE1=Walk this way
TTITLE2=Sge's the most
TTITLE3=Take good care of my baby
TTITLE4=be the one for me
TTITLE5=20 flight rock
TTITLE6=Slippin' n Slidin'
TTITLE7=Freedom
TTITLE8=Buona Sera
TTITLE9=Teenager in love
EXTD=
EXTT0=
EXTT1=
EXTT2=
EXTT3=
EXTT4=
EXTT5=
EXTT6=
EXTT7=
EXTT8=
EXTT9=
PLAYORDER=
